<?xml version="1.0" standalone="no"?><!DOCTYPE svg PUBLIC "-//W3C//DTD SVG 1.1//EN" "http://www.w3.org/Graphics/SVG/1.1/DTD/svg11.dtd"><svg t="1585016913129" class="icon" viewBox="0 0 1024 1024" version="1.1" xmlns="http://www.w3.org/2000/svg" p-id="12312" width="32" height="32" xmlns:xlink="http://www.w3.org/1999/xlink"><defs><style type="text/css"></style></defs><path d="M690.88 655.168l-157.888 157.888c-2.816 3.584-6.464 6.4-10.816 8-0.32 0.064-0.512 0.128-0.704 0.128-2.56 1.152-5.376 1.536-8.192 1.664-0.384 0-0.832 0.32-1.216 0.32-0.768 0-1.408-0.512-2.176-0.512-1.664-0.128-3.328-0.512-4.992-1.088-1.984-0.512-3.776-1.344-5.568-2.24-1.088-0.576-2.112-1.344-3.136-2.112-0.896-0.704-2.048-1.024-2.88-1.984l-160.128-160.064c-10.368-10.304-10.368-27.072 0-37.248 10.24-10.304 27.008-10.304 37.376 0l115.2 115.136L485.76 476.288c0-14.72 11.968-26.816 26.688-26.816s26.688 12.032 26.688 26.816l0 255.936 114.432-114.304c10.176-10.304 27.008-10.304 37.312 0C701.12 628.096 701.12 644.864 690.88 655.168zM512.256 378.56c-14.72 0-26.688-11.968-26.688-26.688 0-14.656 11.904-26.624 26.688-26.624 14.784 0 26.688 11.968 26.688 26.624C539.008 366.656 527.04 378.56 512.256 378.56zM512.256 254.144c-14.72 0-26.688-11.904-26.688-26.688 0-14.656 11.904-26.624 26.688-26.624 14.784 0 26.688 11.968 26.688 26.624C539.008 242.24 527.04 254.144 512.256 254.144z" p-id="12313" fill="#e6e6e6"></path></svg>